#!OML:ASF H:\Punching\Project 1\Capture day 1\Session 1\female.ASF
:FULLY-SPECIFIED
:DEGREES
913
root 2.58945 15.6733 6.59132 14.0022 -4.20554 -2.21791
lowerback -1.14054 0.362275 2.08644
upperback -5.45804 0.579763 1.50691
thorax -4.99275 0.231786 0.372341
lowerneck -12.9746 0.297379 8.21332
upperneck 22.9637 -0.941093 -2.38432
head 9.3346 0.00304829 -2.31567
rclavicle 4.5969e-016 5.1684e-015
rhumerus -39.0234 34.6613 -109.228
rradius 53.6954
rwrist 4.03697
rhand 0.924931 -6.33471
rfingers 7.12502
rthumb 26.476 -34.5052
lclavicle 4.5969e-016 5.1684e-015
lhumerus -43.7862 -39.2674 105.436
lradius 76.6676
lwrist 0.832821
lhand -11.7553 11.7163
lfingers 7.12502
lthumb 14.2928 41.2044
rfemur -25.471 -3.16976 16.7004
rtibia 38.6299
rfoot -18.8205 -9.72541
rtoes -11.3454
lfemur -16.2546 -7.53228 -17.1008
ltibia 26.1254
lfoot -21.0904 20.3345
ltoes -0.734693
914
root 2.61691 15.6699 6.5761 13.9926 -4.2436 -2.24103
lowerback -1.22829 0.358925 2.10354
upperback -5.43834 0.569706 1.44856
thorax -4.92131 0.225105 0.303169
lowerneck -12.9371 0.385351 8.29819
upperneck 22.8884 -0.799701 -2.52029
head 9.3079 0.0595913 -2.35929
rclavicle -3.516e-015 -1.90833e-014
rhumerus -39.1842 33.3721 -108.747
rradius 51.9673
rwrist 4.10058
rhand 0.0431708 -6.51134
rfingers 7.12502
rthumb 25.6317 -34.8061
lclavicle -3.516e-015 -1.90833e-014
lhumerus -44.3643 -38.1829 105.21
lradius 74.5405
lwrist 1.12041
lhand -11.1293 12.0336
lfingers 7.12502
lthumb 14.8959 41.478
rfemur -24.8558 -3.08013 17.1612
rtibia 38.7201
rfoot -19.0999 -10.2375
rtoes -10.9247
lfemur -16.3941 -7.65825 -17.1638
ltibia 26.327
lfoot -21.2131 20.3804
ltoes -0.469271
915
root 2.64286 15.6662 6.56301 13.9797 -4.27996 -2.26303
lowerback -1.32069 0.358505 2.12971
upperback -5.42061 0.563565 1.38794
thorax -4.84924 0.219962 0.226521
lowerneck -12.9036 0.466921 8.37409
upperneck 22.8248 -0.666049 -2.65543
head 9.28595 0.112228 -2.40227
rclavicle 4.98204e-015 -2.76311e-014
rhumerus -39.3234 32.1313 -108.223
rradius 50.272
rwrist 4.14475
rhand -0.783534 -6.62787
rfingers 7.12502
rthumb 24.8397 -35.0343
lclavicle 4.98204e-015 -2.76311e-014
lhumerus -44.8564 -37.0604 104.932
lradius 72.2749
lwrist 1.21533
lhand -10.5792 12.2728
lfingers 7.12502
lthumb 15.4258 41.6772
rfemur -24.1968 -2.9279 17.5842
rtibia 38.5874
rfoot -19.3838 -10.8236
rtoes -10.4324
lfemur -16.5181 -7.78351 -17.2243
ltibia 26.5226
lfoot -21.3375 20.4318
ltoes -0.201878
916
root 2.66699 15.6625 6.5514 13.9874 -4.31167 -2.28073
lowerback -1.43452 0.3593 2.15474
upperback -5.41018 0.558505 1.32712
thorax -4.77275 0.215452 0.150418
lowerneck -12.8759 0.543514 8.44061
upperneck 22.7667 -0.53807 -2.78993
head 9.26693 0.161692 -2.44424
rclavicle 7.96381e-015 1.15295e-014
rhumerus -39.45 30.9627 -107.672
rradius 48.6139
rwrist 4.18771
rhand -1.53567 -6.69038
rfingers 7.12502
rthumb 24.1187 -35.1943
lclavicle 7.96381e-015 1.15295e-014
lhumerus -45.2626 -35.9062 104.604
lradius 69.8997
lwrist 1.12126
lhand -10.051 12.5156
lfingers 7.12502
lthumb 15.9346 41.8801
rfemur -23.5314 -2.72139 17.9678
rtibia 38.225
rfoot -19.6719 -11.5258
rtoes -9.86769
lfemur -16.6578 -7.90462 -17.2812
ltibia 26.7132
lfoot -21.4584 20.4785
ltoes 0.0650021
917
root 2.6896 15.6591 6.54097 14.0272 -4.31745 -2.2891
lowerback -1.57936 0.35394 2.18239
upperback -5.41353 0.544549 1.26632
thorax -4.69329 0.206391 0.0733163
lowerneck -12.8401 0.614692 8.49411
upperneck 22.708 -0.41424 -2.92346
head 9.24619 0.208303 -2.48414
rclavicle -6.78974e-015 1.11319e-014
rhumerus -39.5797 29.8873 -107.11
rradius 47.0185
rwrist 4.19249
rhand -2.14722 -6.7573
rfingers 7.12502
rthumb 23.5322 -35.3378
lclavicle -6.78974e-015 1.11319e-014
lhumerus -45.601 -34.7202 104.234
lradius 67.4773
lwrist 0.894568
lhand -9.49214 12.7999
lfingers 7.12502
lthumb 16.4727 42.1205
rfemur -22.8806 -2.48357 18.3078
rtibia 37.6317
rfoot -19.973 -12.3961
rtoes -9.18747
lfemur -16.8312 -8.03808 -17.3342
ltibia 26.8959
lfoot -21.5644 20.5182
ltoes 0.318332
918
root 2.71019 15.6567 6.53168 14.1176 -4.32336 -2.29261
lowerback -1.77007 0.347553 2.19871
upperback -5.43266 0.528091 1.21036
thorax -4.60464 0.196708 0.0078453
lowerneck -12.8032 0.686363 8.53824
upperneck 22.6481 -0.286847 -3.06007
head 9.22522 0.255512 -2.52312
rclavicle -1.58282e-014 -2.66371e-014
rhumerus -39.7191 28.93 -106.552
rradius 45.5088
rwrist 4.16798
rhand -2.56792 -6.85823
rfingers 7.12502
rthumb 23.1286 -35.4899
lclavicle -1.58282e-014 -2.66371e-014
lhumerus -45.9004 -33.5115 103.834
lradius 65.105
lwrist 0.593171
lhand -8.89886 13.1416
lfingers 7.12502
lthumb 17.0438 42.4139
rfemur -22.2823 -2.18941 18.6027
rtibia 36.8173
rfoot -20.2715 -13.4687
rtoes -8.30213
lfemur -17.0514 -8.15643 -17.3805
ltibia 27.0677
lfoot -21.6588 20.5482
ltoes 0.557229
919
root 2.72914 15.6551 6.52381 14.2442 -4.33226 -2.29641
lowerback -1.99311 0.341348 2.2117
upperback -5.46512 0.511283 1.1597
thorax -4.51187 0.187096 -0.0501437
lowerneck -12.7613 0.758148 8.57877
upperneck 22.5869 -0.1564 -3.20397
head 9.20324 0.303138 -2.56366
rclavicle -4.19933e-015 9.54166e-015
rhumerus -39.8885 28.1108 -106.019
rradius 44.1139
rwrist 4.12093
rhand -2.83253 -6.99585
rfingers 7.12502
rthumb 22.8747 -35.6592
lclavicle -4.19933e-015 9.54166e-015
lhumerus -46.2036 -32.2894 103.424
lradius 62.8848
lwrist 0.221834
lhand -8.21274 13.5142
lfingers 7.12502
lthumb 17.7041 42.7283
rfemur -21.7331 -1.82895 18.8523
rtibia 35.8022
rfoot -20.5283 -14.7557
rtoes -7.12628
lfemur -17.3012 -8.2551 -17.4179
ltibia 27.2297
lfoot -21.7468 20.5657
ltoes 0.797573
920
root 2.74626 15.6548 6.51628 14.4164 -4.32715 -2.3007
lowerback -2.24111 0.328952 2.21877
upperback -5.51382 0.485954 1.11584
thorax -4.4224 0.17353 -0.097577
lowerneck -12.7305 0.832405 8.61781
upperneck 22.5286 -0.0225959 -3.35135
head 9.18487 0.351955 -2.60489
rclavicle -4.70871e-015 4.37326e-015
rhumerus -40.0913 27.4518 -105.526
rradius 42.8602
rwrist 4.06738
rhand -2.97478 -7.14738
rfingers 7.12502
rthumb 22.7382 -35.8275
lclavicle -4.70871e-015 4.37326e-015
lhumerus -46.5401 -31.0645 103.008
lradius 60.9132
lwrist -0.257731
lhand -7.42037 13.8558
lfingers 7.12502
lthumb 18.4665 42.9993
rfemur -21.2573 -1.40938 19.061
rtibia 34.6272
rfoot -20.6827 -16.2466
rtoes -5.72264
lfemur -17.6029 -8.33682 -17.4402
ltibia 27.387
lfoot -21.8174 20.5641
ltoes 1.01648
921
root 2.76255 15.6545 6.51079 14.5817 -4.35376 -2.32733
lowerback -2.48579 0.324395 2.24665
upperback -5.55923 0.471479 1.07938
thorax -4.33133 0.164712 -0.149293
lowerneck -12.6947 0.909618 8.66071
upperneck 22.4645 0.11601 -3.50401
head 9.16412 0.402762 -2.64795
rclavicle -1.32813e-014 -5.76476e-015
rhumerus -40.3442 26.963 -105.093
rradius 41.772
rwrist 4.05117
rhand -2.9748 -7.29513
rfingers 7.12502
rthumb 22.7381 -35.9753
lclavicle -1.32813e-014 -5.76476e-015
lhumerus -46.9462 -29.872 102.612
lradius 59.2216
lwrist -0.901309
lhand -6.52873 14.0848
lfingers 7.12502
lthumb 19.324 43.1447
rfemur -20.8038 -0.915007 19.2406
rtibia 33.3513
rfoot -20.6872 -17.8313
rtoes -4.22561
lfemur -17.8806 -8.37535 -17.4461
ltibia 27.5447
lfoot -21.901 20.5632
ltoes 1.23136
